<svg xmlns="http://www.w3.org/2000/svg" viewBox="0 0 1000 1000">
  <path d="M130 120H370C386.569 120 400 133.431 400 150V270C400 286.569 386.569 300 370 300H130C113.431 300 100 286.569 100 270V150C100 133.431 113.431 120 130 120Z"/>
  <path d="M630 120H870C886.569 120 900 133.431 900 150V270C900 286.569 886.569 300 870 300H630C613.431 300 600 286.569 600 270V150C600 133.431 613.431 120 630 120Z"/>
  <path d="M380 700H620C636.569 700 650 713.431 650 730V850C650 866.569 636.569 880 620 880H380C363.431 880 350 866.569 350 850V730C350 713.431 363.431 700 380 700Z"/>
</svg>
