<svg xmlns="http://www.w3.org/2000/svg" viewBox="0 0 1000 1000">
  <!-- Top layer band -->
  <path d="M830 170H170C153 170 140 183 140 200V340C140 357 153 370 170 370H830C847 370 860 357 860 340V200C860 183 847 170 830 170Z"/>
  <!-- Middle layer band -->
  <path d="M830 430H170C153 430 140 443 140 460V540C140 557 153 570 170 570H830C847 570 860 557 860 540V460C860 443 847 430 830 430Z"/>
  <!-- Bottom layer band -->
  <path d="M830 630H170C153 630 140 643 140 660V800C140 817 153 830 170 830H830C847 830 860 817 860 800V660C860 643 847 630 830 630Z"/>
</svg>
