<svg xmlns="http://www.w3.org/2000/svg" viewBox="0 0 1000 1000"><path d="M 668.52431,56.873628 266.04347,531.43571 203.19088,552.08043 c -77.99981,70.3915 -68.98764,132.25401 -91.12213,132.48198 l 2.24705,45.83079 c -17.475467,31.5374 -14.630365,35.45669 -16.33714,75.73183 -1.706774,40.27514 4.96911,84.87819 19.79566,118.77766 9.93897,23.26406 40.32962,26.78659 55.63428,5.46132 22.6225,-29.95368 108.23923,-46.31496 146.87616,-64.54097 58.43918,-21.1712 66.93785,-25.72852 116.66036,-37.38795 14.24148,-38.62218 37.80326,-7.54038 46.36368,-133.99724 L 454.44877,626.32219 856.9296,151.7601 C 893.51877,108.6181 888.60414,48.81971 845.46213,12.230538 790.58975,-6.6589011 719.13145,0.51333181 668.52431,56.873628 Z M 311.18358,761.28395 c -25.2962,12.55952 -36.29452,24.28117 -76.84282,43.66765 -15.45478,7.2904 -28.58862,18.40355 -41.55865,31.50997 2.34835,-20.26044 8.35562,-44.83507 20.67036,-65.91461 19.30494,-33.69451 28.22179,-124.46901 62.76282,-119.28084 50.84085,-32.00098 95.99903,-9.24593 83.69024,52.3269 z"/></svg>
